<svg id="Layer_1" enable-background="new 0 0 511.754 511.754" height="512" viewBox="0 0 511.754 511.754" width="512" xmlns="http://www.w3.org/2000/svg"><g><path d="m424.641 292.416c0-3.369-2.246-6.324-5.491-7.226-101.45-28.2-165.138-108.452-192.33-206.735-1.984-7.169-12.473-7.169-14.457 0-27.194 98.291-90.872 178.534-192.329 206.735-7.158 1.99-7.158 12.462 0 14.452 61.64 17.134 115.261 55.855 150.985 109.03 5.407 8.051 17.858-.315 12.451-8.365-33.333-49.615-81.421-87.311-137.073-107.893 82.709-30.609 147.668-99.723 173.194-184.131 25.526 84.408 90.486 153.526 173.2 184.133-82.711 30.606-147.674 99.722-173.2 184.132-4.225-13.972-9.543-27.669-15.849-40.802-4.196-8.742-17.719-2.25-13.521 6.492 9.881 20.584 16.082 42.236 22.142 64.138 1.984 7.169 12.473 7.169 14.457 0 27.194-98.291 90.872-178.533 192.33-206.735 3.245-.901 5.491-3.856 5.491-7.225z"/><path d="m491.721 84.17c-14.925-4.148-28.934-11.801-40.514-22.131-3.09-2.758-7.832-2.486-10.589.604-2.758 3.091-2.487 7.832.604 10.589 8.175 7.292 17.405 13.422 27.288 18.168-25.496 12.288-45.946 33.625-57.104 59.758-11.159-26.135-31.614-47.476-57.114-59.763 25.498-12.286 45.951-33.623 57.11-59.754 1.172 2.754 2.45 5.466 3.831 8.127 1.906 3.677 6.435 5.11 10.11 3.204 3.677-1.907 5.111-6.434 3.204-10.111-4.517-8.71-7.437-18.027-9.913-27.484-1.982-7.17-12.473-7.169-14.457-.001-9.831 37.294-34.928 68.186-73.087 78.793-7.158 1.99-7.158 12.462 0 14.452 38.16 10.607 63.269 41.526 73.087 78.793 1.984 7.169 12.475 7.17 14.457 0 9.826-37.294 34.931-68.186 73.086-78.792 7.159-1.991 7.159-12.462.001-14.452z"/><path d="m462.857 443.649c-22.828-6.346-38.805-25.218-44.223-47.823-1.984-7.17-12.473-7.17-14.457 0-5.396 22.622-21.394 41.478-44.224 47.823-7.158 1.99-7.158 12.462 0 14.452 22.828 6.346 38.806 25.217 44.224 47.823 1.984 7.17 12.473 7.17 14.457 0 5.396-22.621 21.393-41.477 44.223-47.823 7.158-1.99 7.158-12.462 0-14.452zm-51.451 38.511c-6.834-13.081-17.348-23.98-30.128-31.285 12.78-7.304 23.294-18.204 30.128-31.285 6.834 13.081 17.348 23.98 30.128 31.285-12.78 7.304-23.294 18.204-30.128 31.285z"/><path d="m20.033 139.837c17.235 4.791 29.442 19.24 33.504 36.322 1.982 7.171 12.475 7.171 14.457 0 4.098-17.117 16.234-31.521 33.504-36.322 7.158-1.99 7.158-12.462 0-14.452-17.236-4.791-29.442-19.24-33.504-36.322-1.982-7.171-12.475-7.171-14.457 0-4.098 17.116-16.235 31.521-33.504 36.322-7.158 1.99-7.158 12.461 0 14.452zm40.733-28.374c5.021 8.576 12.059 15.848 20.443 21.147-8.385 5.299-15.422 12.571-20.443 21.147-5.022-8.576-12.06-15.848-20.443-21.147 8.383-5.298 15.42-12.571 20.443-21.147z"/></g></svg>