<svg id="Layer_1" enable-background="new 0 0 511.918 511.918" height="512" viewBox="0 0 511.918 511.918" width="512" xmlns="http://www.w3.org/2000/svg"><g><path d="m335.377 251.993-110.592 3.226-65.603-90.352c-4.595-6.331-14.758-4.535-16.913 2.982l-30.8 107.431-105.016 34.95c-7.345 2.443-8.788 12.521-2.415 16.919l91.64 63.237.208 32.669c.062 9.701 15.062 9.601 15-.096l-.227-35.513c-.021-3.114-1.563-6.028-4.124-7.793l-84.98-58.641 97.373-32.406c2.992-.995 5.298-3.398 6.169-6.432l28.513-99.453 60.728 83.638c1.855 2.556 4.861 4.016 8.008 3.937l102.527-2.991-59.829 84.281c-1.799 2.537-2.25 5.8-1.207 8.726l34.816 97.782-97.613-31.708c-3.027-.981-6.331-.398-8.84 1.564l-80.876 63.301-.182-28.429c-.062-9.708-15.062-9.597-15 .096l.253 39.528c.05 7.765 9.232 12.312 15.438 7.454l87.331-68.353 105.381 34.231c7.406 2.404 14.566-4.947 11.953-12.287l-37.578-105.54 64.521-90.891c4.485-6.313-.323-15.29-8.064-15.067z"/><path d="m407.544 206.593c4.439 0 8.579-4.024 8.678-8.484l1.36-62.093 3.604-2.405c8.066-5.382-.261-17.861-8.326-12.477l-6.351 4.238c-2.35 1.569-3.79 4.191-3.851 7.016l-1.15 52.499-40.357-32.612c-2.247-1.815-5.237-2.392-7.999-1.543l-49.563 15.25 18.382-49.2c.986-2.644.622-5.61-.976-7.936l-29.635-43.153 51.852 2.322c2.86.13 5.6-1.167 7.317-3.457l31.327-41.766 13.625 50.464c.747 2.762 2.805 4.976 5.504 5.92l49.023 17.167-4.566 3.047c-8.066 5.383.26 17.86 8.326 12.478l15.131-10.097c5.844-3.901 4.68-13.067-1.95-15.388l-57.857-20.261-16.14-59.778c-1.851-6.848-11.046-8.621-15.303-2.942l-37.111 49.478-61.213-2.742c-7.024-.321-11.506 7.774-7.53 13.562l34.97 50.919-21.73 58.162c-2.475 6.622 3.916 13.395 10.671 11.318l58.638-18.042 47.765 38.598c1.58 1.279 3.496 1.938 5.435 1.938z"/><path d="m511.512 332.856c-.973-3.018-3.526-5.188-6.662-5.664l-40.749-6.18-18.077-37.506c-2.927-6.071-11.949-6.134-14.938-.066l-18.407 37.344-40.803 5.818c-6.665.951-9.464 9.359-4.688 14.11l29.44 29.314-7.164 41.187c-1.16 6.676 6.063 11.933 12.058 8.771l36.516-19.23 36.343 19.552c5.941 3.2 13.243-1.973 12.137-8.666l-6.8-41.246 29.697-29.052c2.267-2.217 3.07-5.469 2.097-8.486zm-44.777 29.255c-1.93 1.89-2.822 4.611-2.384 7.287l5.152 31.252-27.489-14.789c-2.602-1.317-5.207-1.33-7.815-.038l-27.625 14.548 5.429-31.211c.461-2.663-.406-5.392-2.324-7.305l-22.395-22.298 31.017-4.423c2.717-.391 5.062-2.094 6.27-4.55l13.899-28.199 13.65 28.32c1.192 2.474 3.524 4.197 6.24 4.608l30.967 4.697z"/><path d="m59.071 229.6c9.652 0 9.668-15 0-15-9.652 0-9.668 15 0 15z"/><path d="m132.567 51.109c9.652 0 9.668-15 0-15-9.651 0-9.667 15 0 15z"/><path d="m216.563 127.605c9.652 0 9.668-15 0-15-9.652 0-9.668 15 0 15z"/><path d="m389.055 481.587c-9.652 0-9.668 15 0 15 9.651 0 9.667-15 0-15z"/><path d="m471.55 225.1c9.652 0 9.668-15 0-15-9.651 0-9.667 15 0 15z"/></g></svg>