<svg id="Layer_1" enable-background="new 0 0 512 512" height="512" viewBox="0 0 512 512" width="512" xmlns="http://www.w3.org/2000/svg"><g><path d="m52.761 175.58c9.652 0 9.668-15 0-15-9.652 0-9.668 15 0 15z"/><path d="m411.252 222.406-114.789 88.308-58.592-32.499c-2.927-1.624-6.574-1.109-8.941 1.255-2.367 2.367-2.879 6.015-1.255 8.941l32.409 58.429-126.192 152.885c-2.46 2.981-2.252 7.345.481 10.078 3.298 2.758 6.657 2.919 10.078.48l152.886-126.191 58.429 32.408c2.925 1.624 6.574 1.111 8.941-1.255 2.366-2.367 2.878-6.015 1.255-8.941l-32.499-58.592 10.678-13.879c2.525-3.283 1.912-7.992-1.371-10.518-3.285-2.528-7.992-1.912-10.518 1.371l-13.682 17.783c-1.823 2.37-2.064 5.597-.614 8.211l22.188 40.002-40.002-22.188c-2.694-1.496-6.033-1.189-8.412.774l-96.357 79.533 79.533-96.357c1.963-2.378 2.271-5.716.774-8.412l-22.188-40.002 40.002 22.188c2.614 1.45 5.84 1.208 8.211-.614l73.103-56.237-18.476 24.016c-2.525 3.283-1.912 7.992 1.371 10.518 3.284 2.527 7.992 1.91 10.518-1.371l53.549-69.606c2.297-2.986 2.022-7.213-.641-9.877-2.665-2.663-6.891-2.938-9.877-.641z"/><path d="m286.486 247.632c2.926 1.625 6.574 1.111 8.941-1.255 2.366-2.367 2.878-6.015 1.255-8.941l-42.486-76.597 114.447-148.766c2.297-2.986 2.022-7.213-.641-9.877-2.664-2.663-6.891-2.938-9.877-.641l-148.766 114.447-76.596-42.486c-2.926-1.624-6.574-1.109-8.941 1.255-2.367 2.367-2.879 6.015-1.255 8.941l42.396 76.434-47.153 57.128c-2.637 3.194-2.185 7.922 1.01 10.559 3.195 2.636 7.922 2.185 10.559-1.01l50.407-61.07c1.963-2.378 2.27-5.716.774-8.412l-32.175-58.007 58.007 32.175c2.614 1.45 5.841 1.208 8.211-.614l107.08-82.377-82.377 107.08c-1.823 2.37-2.064 5.597-.614 8.211l32.175 58.007-58.007-32.175c-2.696-1.496-6.034-1.188-8.412.774l-141.251 116.587 41.093-49.786c2.637-3.194 2.185-7.922-1.01-10.559s-7.922-2.185-10.559 1.01l-91.005 110.257c-2.46 2.981-2.252 7.345.481 10.078 3.298 2.758 6.657 2.919 10.078.48l197.778-163.246z"/><path d="m190.754 33.088c9.652 0 9.668-15 0-15-9.652 0-9.668 15 0 15z"/><path d="m331.747 181.58c9.652 0 9.668-15 0-15-9.652 0-9.668 15 0 15z"/><path d="m460.418 134.022c-9.652 0-9.668 15 0 15 9.651 0 9.667-15 0-15z"/><path d="m385.744 89.954c9.652 0 9.668-15 0-15-9.652 0-9.668 15 0 15z"/><path d="m430.742 318.073c-9.652 0-9.668 15 0 15 9.652 0 9.668-15 0-15z"/><path d="m504.755 384.069c-9.652 0-9.668 15 0 15 9.652 0 9.668-15 0-15z"/><path d="m301.748 468.065c-9.652 0-9.668 15 0 15 9.652 0 9.668-15 0-15z"/><path d="m148.756 363.071c9.652 0 9.668-15 0-15-9.652 0-9.668 15 0 15z"/></g></svg>