<svg id="Layer_1" enable-background="new 0 0 512.005 512.005" height="512" viewBox="0 0 512.005 512.005" width="512" xmlns="http://www.w3.org/2000/svg"><g><path d="m264.025 379.416c5.8-24.622 18.432-78.246 18.948-80.436 22.25-6.355 44.5-12.711 66.75-19.066 7.13-2.036 7.138-12.425 0-14.464-22.267-6.36-44.534-12.72-66.801-19.08-6.299-25.465-12.598-50.93-18.897-76.395-1.767-7.142-12.696-7.149-14.464 0-6.631 26.807-13.262 53.614-19.893 80.421-2.318 9.371 12.144 13.368 14.464 3.988 4.22-17.062 8.441-34.123 12.661-51.185 4.22 17.062 8.441 34.123 12.661 51.185.628 2.537 2.768 4.533 5.238 5.238 15.241 4.353 30.482 8.707 45.723 13.06l-45.723 13.06c-2.448.699-4.641 2.703-5.238 5.238-4.22 17.916-8.441 35.832-12.661 53.748-3.389-14.388-11.83-50.22-12.661-53.748-.597-2.535-2.79-4.539-5.238-5.238-15.308-4.373-30.617-8.745-45.925-13.118 3.893-1.13 7.786-2.26 11.679-3.39 9.252-2.685 5.317-17.164-3.988-14.464-12.266 3.56-24.531 7.12-36.797 10.679-7.107 2.063-7.159 12.419 0 14.464 22.25 6.355 44.5 12.711 66.75 19.066 5.485 23.284 18.117 76.909 18.948 80.436 1.683 7.147 12.779 7.153 14.464.001z"/><path d="m285.122 436.051c-8.649 4.928-17.439 9.583-26.421 13.875-8.706 4.161-1.105 17.098 7.571 12.952 8.982-4.293 17.772-8.948 26.421-13.875 8.386-4.778.837-17.742-7.571-12.952z"/><path d="m506.569 149.397c-25.618-70.714-121.597-68.511-182.054-59.846-95.243 13.651-185.972 61.635-255.143 127.935-119.708 110.374-79.641 215.794 82.844 143.842 10.923-4.884 21.537-10.428 31.784-16.606 8.257-4.979.725-17.954-7.571-12.952-20.395 12.297-42.261 22.115-65.09 28.927-36.771 12.156-107.876 19.505-95.33-39.358 31.849-100.682 180.899-191.639 280.736-211.649 62.891-13.844 192.622-25.727 198.936 68.637 4.994 85.604-111.689 193.248-178.446 237.293-8.103 5.192-.589 18.181 7.571 12.952 75.07-51.085 216.651-177.613 181.763-279.175z"/><path d="m279.895 77.844c55.293-16.93 116.307-20.374 171.913-3.017 9.225 2.919 13.173-11.557 3.988-14.463-53.723-16.998-113.185-14.89-167.335-.657-4.21 1.107-8.433 2.257-12.553 3.673-9.076 3.119-5.177 17.613 3.987 14.464z"/><path d="m414.993 280.539c-6.293 7.265 4.272 17.919 10.607 10.607 62.544-68.062 91.16-173.531-35.71-175.757-9.653-.055-9.664 14.945.001 15 112.455.978 75.916 93.146 25.102 150.15z"/></g></svg>