<svg fill="#000000" xmlns="http://www.w3.org/2000/svg"  viewBox="0 0 100 100" width="100px" height="100px"><path d="M 49.517578 8 A 1.0001 1.0001 0 0 0 48.511719 8.8476562 C 48.511719 8.8476562 48.095359 11.601238 45.699219 14.4375 C 43.303079 17.273762 38.979262 20.166016 30.810547 20.166016 C 27.395476 20.166016 25.042503 19.710695 23.5625 19.271484 C 22.082497 18.832273 21.554687 18.462891 21.554688 18.462891 A 1.0001 1.0001 0 0 0 20 19.294922 L 20 55 L 10 55 A 1.0001 1.0001 0 0 0 9 56 L 9 61.089844 C 7.8456664 61.290999 6.9118871 61.831793 6.2519531 62.574219 C 5.4103171 63.52106 5 64.763889 5 66 C 5 67.236111 5.4103171 68.47894 6.2519531 69.425781 C 7.0935892 70.372622 8.3750006 71 10 71 C 11.624999 71 12.906411 70.372622 13.748047 69.425781 C 14.589683 68.47894 15 67.236111 15 66 C 15 64.763889 14.589683 63.52106 13.748047 62.574219 C 13.088113 61.831793 12.154334 61.290999 11 61.089844 L 11 57 L 20 57 L 20 57.666016 C 20 61.20062 21.95551 64.506612 24.720703 67.480469 C 26.26118 69.137191 28.078454 70.692024 30 72.148438 L 30 77 L 21.902344 77 C 21.739025 76.112671 21.361445 75.264292 20.748047 74.574219 C 19.906411 73.627378 18.624999 73 17 73 C 15.375001 73 14.093589 73.627378 13.251953 74.574219 C 12.410317 75.52106 12 76.763889 12 78 C 12 79.236111 12.410317 80.47894 13.251953 81.425781 C 14.093589 82.372622 15.375001 83 17 83 C 18.624999 83 19.906411 82.372622 20.748047 81.425781 C 21.361445 80.735708 21.739025 79.887329 21.902344 79 L 31 79 A 1.0001 1.0001 0 0 0 32 78 L 32 73.619141 C 32.896346 74.242535 33.806446 74.84178 34.714844 75.416016 C 36.514971 76.55395 38.314031 77.591288 40 78.507812 L 40 88 L 31.902344 88 C 31.739025 87.112671 31.361445 86.264292 30.748047 85.574219 C 29.906411 84.627378 28.624999 84 27 84 C 25.375001 84 24.093589 84.627378 23.251953 85.574219 C 22.410317 86.52106 22 87.763889 22 89 C 22 90.236111 22.410317 91.47894 23.251953 92.425781 C 24.093589 93.372622 25.375001 94 27 94 C 28.624999 94 29.906411 93.372622 30.748047 92.425781 C 31.361445 91.735708 31.739025 90.887329 31.902344 90 L 41 90 A 1.0001 1.0001 0 0 0 42 89 L 42 79.5625 C 46.086965 81.673965 49.121094 82.925781 49.121094 82.925781 A 1.0001 1.0001 0 0 0 49.878906 82.925781 C 49.878906 82.925781 52.913035 81.673965 57 79.5625 L 57 89 A 1.0001 1.0001 0 0 0 58 90 L 67.097656 90 C 67.260975 90.887329 67.638555 91.735708 68.251953 92.425781 C 69.093589 93.372622 70.375001 94 72 94 C 73.624999 94 74.906411 93.372622 75.748047 92.425781 C 76.589683 91.47894 77 90.236111 77 89 C 77 87.763889 76.589683 86.52106 75.748047 85.574219 C 74.906411 84.627378 73.624999 84 72 84 C 70.375001 84 69.093589 84.627378 68.251953 85.574219 C 67.638555 86.264292 67.260975 87.112671 67.097656 88 L 59 88 L 59 78.507812 C 60.685969 77.591288 62.485029 76.55395 64.285156 75.416016 C 65.193554 74.84178 66.103654 74.242535 67 73.619141 L 67 78 A 1.0001 1.0001 0 0 0 68 79 L 77.097656 79 C 77.260975 79.887329 77.638555 80.735708 78.251953 81.425781 C 79.093589 82.372622 80.375001 83 82 83 C 83.624999 83 84.906411 82.372622 85.748047 81.425781 C 86.589683 80.47894 87 79.236111 87 78 C 87 76.763889 86.589683 75.52106 85.748047 74.574219 C 84.906411 73.627378 83.624999 73 82 73 C 80.375001 73 79.093589 73.627378 78.251953 74.574219 C 77.638555 75.264292 77.260975 76.112671 77.097656 77 L 69 77 L 69 72.148438 C 70.921546 70.692024 72.73882 69.137191 74.279297 67.480469 C 77.04449 64.506612 79 61.20062 79 57.666016 L 79 57 L 88 57 L 88 61.089844 C 86.845666 61.290999 85.911887 61.831793 85.251953 62.574219 C 84.410317 63.52106 84 64.763889 84 66 C 84 67.236111 84.410317 68.47894 85.251953 69.425781 C 86.093589 70.372622 87.375001 71 89 71 C 90.624999 71 91.906411 70.372622 92.748047 69.425781 C 93.589683 68.47894 94 67.236111 94 66 C 94 64.763889 93.589683 63.52106 92.748047 62.574219 C 92.088113 61.831793 91.154334 61.290999 90 61.089844 L 90 56 A 1.0001 1.0001 0 0 0 89 55 L 79 55 L 79 19.294922 A 1.0001 1.0001 0 0 0 77.445312 18.462891 C 77.445312 18.462891 76.917503 18.832273 75.4375 19.271484 C 73.957497 19.710695 71.604524 20.166016 68.189453 20.166016 C 60.020738 20.166016 55.696921 17.273762 53.300781 14.4375 C 50.904641 11.601238 50.488281 8.8476562 50.488281 8.8476562 A 1.0001 1.0001 0 0 0 49.517578 8 z M 49.5 12.044922 C 49.994507 13.156232 50.669165 14.421411 51.773438 15.728516 C 54.516639 18.975589 59.538498 22.166016 68.189453 22.166016 C 71.782582 22.166016 74.332173 21.686142 76.005859 21.189453 C 76.658579 20.99575 76.594794 20.952539 77 20.775391 L 77 57.666016 C 77 60.448717 75.39301 63.34405 72.814453 66.117188 C 70.235896 68.890323 66.732721 71.502768 63.214844 73.726562 C 56.481306 77.983109 50.067926 80.666198 49.5 80.902344 C 48.932074 80.666198 42.518694 77.983109 35.785156 73.726562 C 32.267279 71.502768 28.764104 68.890324 26.185547 66.117188 C 23.60699 63.344051 22 60.448717 22 57.666016 L 22 20.775391 C 22.405206 20.952539 22.341421 20.99575 22.994141 21.189453 C 24.667827 21.686142 27.217418 22.166016 30.810547 22.166016 C 39.461502 22.166016 44.48336 18.975589 47.226562 15.728516 C 48.330835 14.421411 49.005493 13.156232 49.5 12.044922 z M 49.492188 17.992188 A 0.50005 0.50005 0 0 0 49.001953 18.451172 C 49.001953 18.451172 48.795627 20.601561 46.878906 22.810547 C 44.962186 25.019533 41.341881 27.277344 34.320312 27.277344 A 0.50005 0.50005 0 0 0 34.318359 27.277344 C 31.666685 27.284544 29.058275 26.609139 26.744141 25.314453 A 0.50005 0.50005 0 0 0 26 25.75 L 26 29.5 A 0.50005 0.50005 0 1 0 27 29.5 L 27 26.484375 C 29.280903 27.617154 31.768218 28.284286 34.322266 28.277344 C 41.559317 28.276867 45.526698 25.896307 47.634766 23.466797 C 49.743045 21.037043 49.998047 18.548828 49.998047 18.548828 A 0.50005 0.50005 0 0 0 49.492188 17.992188 z M 52.244141 23.244141 A 0.50005 0.50005 0 0 0 51.896484 24.103516 C 54.120893 26.327212 58.017808 28.277344 64.679688 28.277344 C 67.233064 28.283944 69.719678 27.616865 72 26.484375 L 72 35.5 A 0.50005 0.50005 0 1 0 73 35.5 L 73 25.75 A 0.50005 0.50005 0 0 0 72.255859 25.314453 C 69.941725 26.609139 67.333315 27.284551 64.681641 27.277344 A 0.50005 0.50005 0 0 0 64.679688 27.277344 C 58.211326 27.277344 54.623987 25.416308 52.603516 23.396484 A 0.50005 0.50005 0 0 0 52.244141 23.244141 z M 49.978516 37.972656 C 48.108817 37.972656 46.703812 39.163707 46.166016 40.644531 C 45.669804 42.01085 46.004877 43.618974 47.169922 44.808594 L 44.515625 55.378906 A 0.50005 0.50005 0 0 0 45 56 L 54.958984 56 A 0.50005 0.50005 0 0 0 55.443359 55.378906 L 52.789062 44.808594 C 53.954003 43.618983 54.289163 42.010803 53.792969 40.644531 C 53.255172 39.163707 51.848214 37.972656 49.978516 37.972656 z M 49.978516 38.972656 C 51.431716 38.972656 52.441813 39.858083 52.851562 40.986328 C 53.261313 42.114574 53.054391 43.440453 51.939453 44.373047 A 0.50005 0.50005 0 0 0 51.775391 44.878906 L 54.316406 55 L 45.640625 55 L 48.181641 44.878906 A 0.50005 0.50005 0 0 0 48.017578 44.373047 C 46.90264 43.440453 46.69572 42.114574 47.105469 40.986328 C 47.515218 39.858083 48.525316 38.972656 49.978516 38.972656 z M 26.492188 40.992188 A 0.50005 0.50005 0 0 0 26 41.5 L 26 42.5 A 0.50005 0.50005 0 1 0 27 42.5 L 27 41.5 A 0.50005 0.50005 0 0 0 26.492188 40.992188 z M 26.492188 43.992188 A 0.50005 0.50005 0 0 0 26 44.5 L 26 46.5 A 0.50005 0.50005 0 1 0 27 46.5 L 27 44.5 A 0.50005 0.50005 0 0 0 26.492188 43.992188 z M 26.492188 47.992188 A 0.50005 0.50005 0 0 0 26 48.5 L 26 57.929688 C 26 59.512152 26.874812 61.161921 28.271484 62.851562 C 29.668157 64.541206 31.611824 66.278082 33.869141 67.980469 C 38.383775 71.385243 44.155794 74.648289 49.294922 76.957031 A 0.50093345 0.50093345 0 1 0 49.705078 76.042969 C 44.632206 73.763991 38.903069 70.524371 34.470703 67.181641 C 32.25452 65.510275 30.363172 63.811977 29.042969 62.214844 C 27.722766 60.617711 27 59.129072 27 57.929688 L 27 48.5 A 0.50005 0.50005 0 0 0 26.492188 47.992188 z M 72.492188 47.992188 A 0.50005 0.50005 0 0 0 72 48.5 L 72 57.929688 C 72 59.977188 69.808501 62.848499 66.384766 65.708984 C 62.961031 68.56947 58.384421 71.453482 53.869141 73.816406 A 0.50013442 0.50013442 0 1 0 54.332031 74.703125 C 58.897151 72.314119 63.519226 69.405918 67.025391 66.476562 C 70.531556 63.547208 73 60.631315 73 57.929688 L 73 48.5 A 0.50005 0.50005 0 0 0 72.492188 47.992188 z M 10 62 C 11.374999 62 12.34359 62.497622 13.001953 63.238281 C 13.660316 63.97894 14 64.986111 14 66 C 14 67.013889 13.660316 68.02106 13.001953 68.761719 C 12.34359 69.502378 11.374999 70 10 70 C 8.6250007 70 7.6564102 69.502378 6.9980469 68.761719 C 6.3396836 68.02106 6 67.013889 6 66 C 6 64.986111 6.3396836 63.97894 6.9980469 63.238281 C 7.6564102 62.497622 8.6250007 62 10 62 z M 89 62 C 90.374999 62 91.34359 62.497622 92.001953 63.238281 C 92.660316 63.97894 93 64.986111 93 66 C 93 67.013889 92.660316 68.02106 92.001953 68.761719 C 91.34359 69.502378 90.374999 70 89 70 C 87.625001 70 86.65641 69.502378 85.998047 68.761719 C 85.339684 68.02106 85 67.013889 85 66 C 85 64.986111 85.339684 63.97894 85.998047 63.238281 C 86.65641 62.497622 87.625001 62 89 62 z M 17 74 C 18.374999 74 19.34359 74.497622 20.001953 75.238281 C 20.660316 75.97894 21 76.986111 21 78 C 21 79.013889 20.660316 80.02106 20.001953 80.761719 C 19.34359 81.502378 18.374999 82 17 82 C 15.625001 82 14.65641 81.502378 13.998047 80.761719 C 13.339684 80.02106 13 79.013889 13 78 C 13 76.986111 13.339684 75.97894 13.998047 75.238281 C 14.65641 74.497622 15.625001 74 17 74 z M 82 74 C 83.374999 74 84.34359 74.497622 85.001953 75.238281 C 85.660316 75.97894 86 76.986111 86 78 C 86 79.013889 85.660316 80.02106 85.001953 80.761719 C 84.34359 81.502378 83.374999 82 82 82 C 80.625001 82 79.65641 81.502378 78.998047 80.761719 C 78.339684 80.02106 78 79.013889 78 78 C 78 76.986111 78.339684 75.97894 78.998047 75.238281 C 79.65641 74.497622 80.625001 74 82 74 z M 27 85 C 28.374999 85 29.34359 85.497622 30.001953 86.238281 C 30.660316 86.97894 31 87.986111 31 89 C 31 90.013889 30.660316 91.02106 30.001953 91.761719 C 29.34359 92.502378 28.374999 93 27 93 C 25.625001 93 24.65641 92.502378 23.998047 91.761719 C 23.339684 91.02106 23 90.013889 23 89 C 23 87.986111 23.339684 86.97894 23.998047 86.238281 C 24.65641 85.497622 25.625001 85 27 85 z M 72 85 C 73.374999 85 74.34359 85.497622 75.001953 86.238281 C 75.660316 86.97894 76 87.986111 76 89 C 76 90.013889 75.660316 91.02106 75.001953 91.761719 C 74.34359 92.502378 73.374999 93 72 93 C 70.625001 93 69.65641 92.502378 68.998047 91.761719 C 68.339684 91.02106 68 90.013889 68 89 C 68 87.986111 68.339684 86.97894 68.998047 86.238281 C 69.65641 85.497622 70.625001 85 72 85 z"/></svg>