<svg fill="#000000" xmlns="http://www.w3.org/2000/svg"  viewBox="0 0 100 100" width="100px" height="100px"><path d="M 49.517578 10 A 1.0001 1.0001 0 0 0 48.511719 10.847656 C 48.511719 10.847656 48.062592 13.80884 45.486328 16.853516 C 42.910064 19.898191 38.259259 23 29.5 23 C 25.838889 23 23.311477 22.512356 21.720703 22.041016 C 20.129929 21.569675 19.554687 21.167969 19.554688 21.167969 A 1.0001 1.0001 0 0 0 18 22 L 18 63 C 18 66.751543 20.080421 70.268842 23.033203 73.439453 C 25.985986 76.610064 29.859684 79.473796 33.716797 81.908203 C 41.431023 86.777018 49.121094 89.925781 49.121094 89.925781 A 1.0001 1.0001 0 0 0 49.878906 89.925781 C 49.878906 89.925781 57.568977 86.777018 65.283203 81.908203 C 69.140316 79.473796 73.014014 76.610064 75.966797 73.439453 C 78.919579 70.268842 81 66.751543 81 63 L 81 22 A 1.0001 1.0001 0 0 0 79.445312 21.167969 C 79.445312 21.167969 78.870071 21.569675 77.279297 22.041016 C 75.688523 22.512356 73.161111 23 69.5 23 C 60.740741 23 56.089936 19.898191 53.513672 16.853516 C 50.937408 13.80884 50.488281 10.847656 50.488281 10.847656 A 1.0001 1.0001 0 0 0 49.517578 10 z M 49.5 14.089844 C 50.026083 15.29857 50.764499 16.702504 51.986328 18.146484 C 54.910064 21.601809 60.259259 25 69.5 25 C 73.338889 25 76.061477 24.487644 77.845703 23.958984 C 78.606025 23.733704 78.557056 23.677357 79 23.478516 L 79 63 C 79 65.998457 77.267921 69.106158 74.501953 72.076172 C 71.735986 75.046186 67.984684 77.838704 64.216797 80.216797 C 56.983375 84.782154 50.070568 87.665675 49.5 87.902344 C 48.929432 87.665675 42.016625 84.782154 34.783203 80.216797 C 31.015316 77.838704 27.264014 75.046186 24.498047 72.076172 C 21.732079 69.106158 20 65.998457 20 63 L 20 23.478516 C 20.442944 23.677357 20.393975 23.733704 21.154297 23.958984 C 22.938523 24.487644 25.661111 25 29.5 25 C 38.740741 25 44.089936 21.601809 47.013672 18.146484 C 48.235501 16.702504 48.973917 15.29857 49.5 14.089844 z M 49.492188 19.992188 A 0.50005 0.50005 0 0 0 49.001953 20.451172 C 49.001953 20.451172 48.776699 22.780033 46.685547 25.169922 C 44.594394 27.55981 40.642473 30 33 30 C 28.133333 30 24.748047 28.066406 24.748047 28.066406 A 0.50005 0.50005 0 0 0 24 28.5 L 24 32.5 A 0.50005 0.50005 0 1 0 25 32.5 L 25 29.25 C 25.894286 29.703086 28.650901 31 33 31 C 40.857527 31 45.155606 28.44019 47.439453 25.830078 C 48.135937 25.034097 48.628024 24.241562 49 23.511719 L 49 54 L 25 54 L 25 52.5 A 0.50005 0.50005 0 0 0 24.492188 51.992188 A 0.50005 0.50005 0 0 0 24 52.5 L 24 63 C 24 64.692402 24.945891 66.46566 26.460938 68.283203 C 27.975983 70.100746 30.085278 71.969092 32.537109 73.802734 C 37.440772 77.470018 43.713886 80.987413 49.296875 83.474609 A 0.50013708 0.50013708 0 0 0 50 83.011719 L 50 55 L 74 55 L 74 63 C 74 65.229683 71.60777 68.3279 67.882812 71.414062 C 64.157856 74.500225 59.179686 77.610096 54.269531 80.158203 A 0.50005 0.50005 0 1 0 54.730469 81.044922 C 59.690314 78.471029 64.711988 75.340134 68.519531 72.185547 C 72.327075 69.03096 75 65.889317 75 63 L 75 54.5 A 0.50005 0.50005 0 0 0 74.492188 53.992188 A 0.50005 0.50005 0 0 0 74.417969 54 L 50 54 L 50 20.523438 A 0.50005 0.50005 0 0 0 49.492188 19.992188 z M 52.492188 25.587891 A 0.50005 0.50005 0 0 0 52.148438 26.447266 C 54.553862 28.831837 58.764972 31 66 31 C 70.349099 31 73.105714 29.703086 74 29.25 L 74 38.5 A 0.50005 0.50005 0 1 0 75 38.5 L 75 28.5 A 0.50005 0.50005 0 0 0 74.251953 28.066406 C 74.251953 28.066406 70.866667 30 66 30 C 58.963028 30 55.060139 27.92771 52.851562 25.738281 A 0.50005 0.50005 0 0 0 52.492188 25.587891 z M 24.492188 44.992188 A 0.50005 0.50005 0 0 0 24 45.5 L 24 46.5 A 0.50005 0.50005 0 1 0 25 46.5 L 25 45.5 A 0.50005 0.50005 0 0 0 24.492188 44.992188 z M 24.492188 47.992188 A 0.50005 0.50005 0 0 0 24 48.5 L 24 50.5 A 0.50005 0.50005 0 1 0 25 50.5 L 25 48.5 A 0.50005 0.50005 0 0 0 24.492188 47.992188 z M 25 55 L 49 55 L 49 82.236328 C 43.660573 79.799776 37.7561 76.456633 33.136719 73.001953 C 30.72605 71.199095 28.666594 69.367785 27.228516 67.642578 C 25.790437 65.917371 25 64.306098 25 63 L 25 55 z"/></svg>