<svg xmlns="http://www.w3.org/2000/svg" width="1925.01" height="272.868" viewBox="0 0 1925.01 272.868">
  <g id="Group_327" data-name="Group 327" transform="translate(19836.906 436.367)">
    <path id="Path_522" data-name="Path 522" d="M1925.907,286.5H.906V157.378l2.393.238c77.766,7.754,768.007,76.61,1053.36,106.146,30.26,3.131,59.949,5.494,88.241,7.023,27.207,1.47,53.995,2.216,79.618,2.218h0l0,0c23.374,0,46.5-.621,68.744-1.846,21.19-1.167,42.275-2.921,62.671-5.214,19.29-2.169,38.62-4.892,57.454-8.1,17.62-3,35.482-6.526,53.088-10.492,16.4-3.692,32.613-7.748,49.578-12.4,15.1-4.142,30.449-8.664,46.918-13.825,30.579-9.581,60.394-19.941,89.228-29.96l.046-.016c2.858-.993,7.093-2.465,10.866-3.774,146.1-50.686,258.094-88.019,262.79-89.584V286.5Z" transform="translate(-19837.813 -450)" fill="#ffffff"/>
    <path id="Path_521" data-name="Path 521" d="M1225,987c-25.622,0-52.41-.747-79.619-2.217-28.305-1.53-57.994-3.892-88.241-7.023C753.772,946.359,7.929,872.028.481,871.286V811.408l.466.064c77.547,10.867,766,107.385,1055.713,149.539,30.248,4.4,59.937,7.722,88.241,9.872,27.217,2.067,54.005,3.115,79.621,3.115h.01c23.371,0,46.5-.873,68.734-2.594,21.189-1.64,42.275-4.105,62.669-7.327,19.276-3.045,38.6-6.874,57.45-11.378,17.607-4.209,35.467-9.169,53.083-14.745,16.4-5.192,32.618-10.894,49.571-17.43,15.1-5.823,30.45-12.179,46.913-19.431,30.593-13.476,60.42-28.045,89.265-42.135,3.388-1.655,7.228-3.531,10.9-5.321,148.837-72.585,261.271-125.49,262.374-126.005v84.555c-1.072.357-112.489,37.354-261.893,89.188-3.244,1.125-6.8,2.36-10.866,3.774-28.853,10.026-58.689,20.393-89.273,29.977-16.467,5.16-31.814,9.682-46.918,13.825-16.965,4.653-33.181,8.709-49.577,12.4-17.612,3.966-35.474,7.5-53.089,10.492-18.844,3.2-38.174,5.928-57.454,8.1-20.4,2.293-41.486,4.047-62.672,5.214C1271.507,986.377,1248.379,987,1225,987h0Z" transform="translate(-19837.387 -1163.998)" fill="#099bdb"/>
  </g>
</svg>
