<svg id="visual" viewBox="0 0 960 540" width="960" height="540" xmlns="http://www.w3.org/2000/svg" xmlns:xlink="http://www.w3.org/1999/xlink" version="1.1"><path d="M0 346L53.3 348.5C106.7 351 213.3 356 320 357.8C426.7 359.7 533.3 358.3 640 353.5C746.7 348.7 853.3 340.3 906.7 336.2L960 332L960 541L906.7 541C853.3 541 746.7 541 640 541C533.3 541 426.7 541 320 541C213.3 541 106.7 541 53.3 541L0 541Z" fill="#fafafa"></path><path d="M0 433L53.3 431C106.7 429 213.3 425 320 425.8C426.7 426.7 533.3 432.3 640 443.5C746.7 454.7 853.3 471.3 906.7 479.7L960 488L960 541L906.7 541C853.3 541 746.7 541 640 541C533.3 541 426.7 541 320 541C213.3 541 106.7 541 53.3 541L0 541Z" fill="#f7f7f7"></path></svg>