<svg id="visual" viewBox="0 0 960 540" width="960" height="540" xmlns="http://www.w3.org/2000/svg" xmlns:xlink="http://www.w3.org/1999/xlink" version="1.1"><path d="M0 148L80 168.7C160 189.3 320 230.7 480 228C640 225.3 800 178.7 880 155.3L960 132L960 541L880 541C800 541 640 541 480 541C320 541 160 541 80 541L0 541Z" fill="#fafafa"></path><path d="M0 304L80 310.7C160 317.3 320 330.7 480 328C640 325.3 800 306.7 880 297.3L960 288L960 541L880 541C800 541 640 541 480 541C320 541 160 541 80 541L0 541Z" fill="#f7f7f7"></path></svg>