<svg id="visual" viewBox="0 0 960 540" width="960" height="540" xmlns="http://www.w3.org/2000/svg" xmlns:xlink="http://www.w3.org/1999/xlink" version="1.1"><path d="M44 540L65.3 495C86.7 450 129.3 360 137.3 270C145.3 180 118.7 90 105.3 45L92 0L960 0L960 45C960 90 960 180 960 270C960 360 960 450 960 495L960 540Z" fill="#099bdb"></path><path d="M264 540L264 495C264 450 264 360 257.8 270C251.7 180 239.3 90 233.2 45L227 0L960 0L960 45C960 90 960 180 960 270C960 360 960 450 960 495L960 540Z" fill="#099bdb"></path><path d="M285 540L298.5 495C312 450 339 360 325.5 270C312 180 258 90 231 45L204 0L960 0L960 45C960 90 960 180 960 270C960 360 960 450 960 495L960 540Z" fill="#099bdb"></path><path d="M329 540L340.3 495C351.7 450 374.3 360 388.5 270C402.7 180 408.3 90 411.2 45L414 0L960 0L960 45C960 90 960 180 960 270C960 360 960 450 960 495L960 540Z" fill="#099bdb"></path><path d="M504 540L491.5 495C479 450 454 360 457.7 270C461.3 180 493.7 90 509.8 45L526 0L960 0L960 45C960 90 960 180 960 270C960 360 960 450 960 495L960 540Z" fill="#099bdb"></path><path d="M646 540L642 495C638 450 630 360 613.7 270C597.3 180 572.7 90 560.3 45L548 0L960 0L960 45C960 90 960 180 960 270C960 360 960 450 960 495L960 540Z" fill="#099bdb"></path><path d="M731 540L725 495C719 450 707 360 684.3 270C661.7 180 628.3 90 611.7 45L595 0L960 0L960 45C960 90 960 180 960 270C960 360 960 450 960 495L960 540Z" fill="#099bdb"></path><path d="M786 540L768.3 495C750.7 450 715.3 360 722 270C728.7 180 777.3 90 801.7 45L826 0L960 0L960 45C960 90 960 180 960 270C960 360 960 450 960 495L960 540Z" fill="#099bdb"></path><path d="M924 540L902.2 495C880.3 450 836.7 360 822.3 270C808 180 823 90 830.5 45L838 0L960 0L960 45C960 90 960 180 960 270C960 360 960 450 960 495L960 540Z" fill="#099bdb"></path></svg>