<svg id="visual" viewBox="0 0 960 540" width="960" height="540" xmlns="http://www.w3.org/2000/svg" xmlns:xlink="http://www.w3.org/1999/xlink" version="1.1"><path d="M210 540L238.5 510C267 480 324 420 359.3 360C394.7 300 408.3 240 399.5 180C390.7 120 359.3 60 343.7 30L328 0L960 0L960 30C960 60 960 120 960 180C960 240 960 300 960 360C960 420 960 480 960 510L960 540Z" fill="#098ac1"></path><path d="M682 540L684.7 510C687.3 480 692.7 420 684 360C675.3 300 652.7 240 631.7 180C610.7 120 591.3 60 581.7 30L572 0L960 0L960 30C960 60 960 120 960 180C960 240 960 300 960 360C960 420 960 480 960 510L960 540Z" fill="#08445e"></path></svg>