<svg id="visual" viewBox="0 0 960 540" width="960" height="540" xmlns="http://www.w3.org/2000/svg" xmlns:xlink="http://www.w3.org/1999/xlink" version="1.1"><path d="M481 540L500.8 495C520.7 450 560.3 360 501.5 270C442.7 180 285.3 90 206.7 45L128 0L960 0L960 45C960 90 960 180 960 270C960 360 960 450 960 495L960 540Z" fill="#fafafa"></path><path d="M593 540L619.2 495C645.3 450 697.7 360 692.3 270C687 180 624 90 592.5 45L561 0L960 0L960 45C960 90 960 180 960 270C960 360 960 450 960 495L960 540Z" fill="#9fc5e5"></path><path d="M674 540L685.2 495C696.3 450 718.7 360 705.8 270C693 180 645 90 621 45L597 0L960 0L960 45C960 90 960 180 960 270C960 360 960 450 960 495L960 540Z" fill="#0492cf"></path></svg>