<svg id="visual" viewBox="0 0 960 540" width="960" height="540" xmlns="http://www.w3.org/2000/svg" xmlns:xlink="http://www.w3.org/1999/xlink" version="1.1"><path d="M0 269L80 280.2C160 291.3 320 313.7 480 280.5C640 247.3 800 158.7 880 114.3L960 70L960 541L880 541C800 541 640 541 480 541C320 541 160 541 80 541L0 541Z" fill="#fafafa"></path><path d="M0 332L80 346.7C160 361.3 320 390.7 480 387.7C640 384.7 800 349.3 880 331.7L960 314L960 541L880 541C800 541 640 541 480 541C320 541 160 541 80 541L0 541Z" fill="#9fc5e5"></path><path d="M0 377L80 383.3C160 389.7 320 402.3 480 395.2C640 388 800 361 880 347.5L960 334L960 541L880 541C800 541 640 541 480 541C320 541 160 541 80 541L0 541Z" fill="#0492cf"></path></svg>